<?xml version='1.0' encoding='iso-8859-1'?>
<svg version="1.1" fill="#ffffff" xmlns="http://www.w3.org/2000/svg" viewBox="0 0 10.56 10.56" xmlns:xlink="http://www.w3.org/1999/xlink" enable-background="new 0 0 10.56 10.56">
  <g>
    <g>
      <path  fill-rule="evenodd" d="M8.88,0h-7.2C1.548,0,1.44,0.107,1.44,0.24v10.08    c0,0.133,0.107,0.24,0.24,0.24h7.2c0.132,0,0.24-0.107,0.24-0.24V0.24C9.12,0.107,9.012,0,8.88,0z M6.72,0.48h0.96v2.88L7.2,2.88    L6.72,3.36V0.48z M8.64,10.08H1.92v-9.6h4.32v3.589C6.235,4.134,6.254,4.201,6.304,4.25C6.35,4.296,6.41,4.318,6.47,4.318    c0.002,0,0.005,0.001,0.007,0.001l0.004-0.004C6.536,4.312,6.59,4.292,6.632,4.25L7.2,3.685L7.768,4.25    c0.042,0.042,0.096,0.062,0.15,0.065l0.004,0.004c0.003,0,0.005-0.001,0.008-0.001c0.06,0,0.12-0.022,0.165-0.067    c0.05-0.05,0.069-0.116,0.064-0.181V0.48h0.48V10.08z M5.52,8.4H3.36c-0.132,0-0.24,0.107-0.24,0.24c0,0.133,0.108,0.24,0.24,0.24    h2.16c0.132,0,0.24-0.107,0.24-0.24C5.76,8.507,5.653,8.4,5.52,8.4z M6,7.2H3.36c-0.132,0-0.24,0.107-0.24,0.24    c0,0.132,0.108,0.24,0.24,0.24H6c0.132,0,0.24-0.107,0.24-0.24C6.24,7.307,6.133,7.2,6,7.2z M3.36,6.48h2.16    c0.132,0,0.24-0.107,0.24-0.24C5.76,6.107,5.653,6,5.52,6H3.36C3.228,6,3.12,6.107,3.12,6.24C3.12,6.372,3.228,6.48,3.36,6.48z     M6,4.8H3.36c-0.132,0-0.24,0.107-0.24,0.24c0,0.132,0.108,0.24,0.24,0.24H6c0.132,0,0.24-0.107,0.24-0.24    C6.24,4.907,6.133,4.8,6,4.8z"/>
    </g>
  </g>
</svg>
