<?xml version="1.0" encoding="utf-8"?>
<!DOCTYPE svg PUBLIC "-//W3C//DTD SVG 1.1//EN" "http://www.w3.org/Graphics/SVG/1.1/DTD/svg11.dtd">
<svg xmlns="http://www.w3.org/2000/svg" xmlns:xlink="http://www.w3.org/1999/xlink" version="1.1" viewBox="0 0 512 512" enable-background="new 0 0 512 512" width="512px" height="512px">
  <g>
    <g>
      <path d="M410.3,164.3v-45.9h60.5V11H272.7v107.4h60.5v45.9H202.8v-62.6H74.6v62.6H11V501h490V164.3H410.3z M292.5,31.9h157.4v65.7    H292.5V31.9z M353,118.4h36.5v45.9H353V118.4z M94.4,122.6H182v116.8H94.4V122.6z M480.1,480.1H31.9V184.1h42.7v55.3H47.5v20.9    h181.4v-20.9h-26.1v-55.3h277.3V480.1z" fill="#FFFFFF"/>
      <path d="m454.1,210.1h-187.7v62.6h187.7v-62.6zm-20.9,41.7h-146v-21.9h146v21.9z" fill="#FFFFFF"/>
      <path d="m55.8,366.5h67.8v-67.8h-67.8v67.8zm19.8-47.9h27.1v27.1h-27.1v-27.1z" fill="#FFFFFF"/>
      <path d="m166.3,366.5h67.8v-67.8h-67.8v67.8zm20.9-47.9h27.1v27.1h-27.1v-27.1z" fill="#FFFFFF"/>
      <path d="m277.9,366.5h67.8v-67.8h-67.8v67.8zm19.8-47.9h27.1v27.1h-27.1v-27.1z" fill="#FFFFFF"/>
      <path d="m388.4,366.5h67.8v-67.8h-67.8v67.8zm20.9-47.9h27.1v27.1h-27.1v-27.1z" fill="#FFFFFF"/>
      <path d="m55.8,456.2h67.8v-67.8h-67.8v67.8zm19.8-48h27.1v27.1h-27.1v-27.1z" fill="#FFFFFF"/>
      <path d="m166.3,456.2h67.8v-67.8h-67.8v67.8zm20.9-48h27.1v27.1h-27.1v-27.1z" fill="#FFFFFF"/>
      <path d="m277.9,456.2h67.8v-67.8h-67.8v67.8zm19.8-48h27.1v27.1h-27.1v-27.1z" fill="#FFFFFF"/>
      <path d="m388.4,456.2h67.8v-67.8h-67.8v67.8zm20.9-48h27.1v27.1h-27.1v-27.1z" fill="#FFFFFF"/>
    </g>
  </g>
</svg>
