<?xml version="1.0" encoding="utf-8"?>
<!-- Svg Vector Icons : http://www.onlinewebfonts.com/icon -->
<!DOCTYPE svg PUBLIC "-//W3C//DTD SVG 1.1//EN" "http://www.w3.org/Graphics/SVG/1.1/DTD/svg11.dtd">
<svg version="1.1"  fill="#ffffff" xmlns="http://www.w3.org/2000/svg" xmlns:xlink="http://www.w3.org/1999/xlink" x="0px" y="0px" viewBox="0 0 1000 1000" enable-background="new 0 0 1000 1000" xml:space="preserve">
<metadata> Svg Vector Icons : http://www.onlinewebfonts.com/icon </metadata>
<g><g transform="translate(0.000000,511.000000) scale(0.100000,-0.100000)"><path d="M4541.7,4987.8C2223.9,4761.1,347.2,2872.1,120.5,540C-22.5-936.4,590.2-2480.3,1727.6-3509.5c869.9-786.2,1946.2-1231.4,3089.7-1276.3c1646-63.3,3265.4,769.9,4231.3,2179c735.2,1072.1,1010.9,2387.2,761.7,3626.8C9506.1,2529,8519.8,3805.4,7114.8,4505.8C6324.5,4900,5399.4,5073.5,4541.7,4987.8z M5411.7,4336.3C6978,4179.1,8287,3237.7,8893.5,1834.7c420.7-974.1,467.7-2068.7,130.7-3093.8c-522.8-1597-1911.4-2691.5-3622.7-2857C4131.2-4240.6,2859-3793.4,1978.8-2913.2c-1260,1260-1586.7,3279.7-796.4,4919.5c212.4,439.1,477.9,808.7,833.2,1159.9C2877.4,4017.8,4161.9,4460.9,5411.7,4336.3z"/><path d="M2714,111.2V-2178h326.7h326.7v1960.4v1960.4h710.7c398.2,0,765.8-10.2,841.4-22.5c251.2-40.8,349.2-134.8,388-377.8c12.3-67.4,20.4-616.7,20.4-1227.3V-993.6h326.7h326.7V66.2c0,643.3-8.2,1123.2-22.5,1221.2c-77.6,567.7-363.5,904.7-892.4,1053.7c-149.1,40.8-208.3,42.9-1253.9,51l-1098.7,6.1V111.2z"/><path d="M6614.5,685c0-1104.8-8.2-1690.9-22.5-1770.5c-42.9-228.7-122.5-328.8-312.5-392.1c-87.8-28.6-228.7-34.7-853.6-42.9l-751.5-8.2v1309v1309h-326.7H4021V-544.3V-2178H4946c1155.9,0,1341.7,20.4,1668.4,179.7c296.1,145,492.1,398.2,596.3,769.9c44.9,161.3,47,175.6,53.1,1864.4l6.1,1699.1h-328.8h-326.7V685z"/></g></g>
</svg>
